<?xml version="1.0" encoding="utf-8"?>
<!-- Generator: Adobe Illustrator 16.0.4, SVG Export Plug-In . SVG Version: 6.00 Build 0)  -->
<!DOCTYPE svg PUBLIC "-//W3C//DTD SVG 1.1//EN" "http://www.w3.org/Graphics/SVG/1.1/DTD/svg11.dtd">
<svg version="1.1" id="Layer_1" xmlns="http://www.w3.org/2000/svg" xmlns:xlink="http://www.w3.org/1999/xlink" x="0px" y="0px"
	 width="50px" height="50px" viewBox="0 0 50 50" enable-background="new 0 0 50 50" xml:space="preserve">
<g id="Layer_1_1_" display="none">
	<g display="inline">
		<g>
			<path d="M12.975,4.149L12.975,4.149c0.52,0,1.154,0.37,1.884,1.1l9.567,9.568c0.772,0.771,1.141,1.439,1.098,1.984
				c-0.048,0.595-0.557,1.393-1.47,2.307l-4.721,4.721c-0.979,0.979-1.788,1.475-2.406,1.475c-0.521,0-1.155-0.37-1.885-1.101
				l-9.567-9.567c-1.331-1.331-1.728-2.188,0.374-4.292l4.721-4.721C11.547,4.646,12.356,4.149,12.975,4.149 M12.974,2.149
				c-1.246,0-2.485,0.726-3.82,2.061L4.433,8.931c-2.483,2.484-2.858,4.636-0.375,7.12l9.567,9.567
				c1.149,1.149,2.227,1.687,3.299,1.687c1.247,0,2.485-0.726,3.82-2.061l4.721-4.721c2.483-2.483,2.858-4.636,0.374-7.12
				l-9.567-9.567C15.125,2.687,14.047,2.149,12.974,2.149L12.974,2.149z"/>
		</g>
		<g>
			<path d="M33.309,24.482c0.521,0,1.153,0.37,1.885,1.1l9.565,9.566c0.771,0.771,1.142,1.439,1.097,1.984
				c-0.047,0.596-0.557,1.393-1.471,2.307l-4.72,4.722c-0.979,0.979-1.789,1.475-2.407,1.475c-0.521,0-1.154-0.37-1.886-1.101
				l-9.565-9.566c-0.772-0.771-1.142-1.438-1.098-1.984c0.048-0.596,0.557-1.394,1.473-2.308l4.719-4.72
				C31.879,24.979,32.689,24.482,33.309,24.482 M33.309,22.482c-1.248,0-2.486,0.726-3.822,2.061l-4.719,4.721
				c-2.484,2.482-2.859,4.635-0.375,7.119l9.567,9.566c1.148,1.148,2.229,1.687,3.3,1.687c1.247,0,2.486-0.726,3.821-2.061
				l4.72-4.722c2.484-2.482,2.858-4.636,0.374-7.119l-9.566-9.566C35.457,23.019,34.38,22.482,33.309,22.482L33.309,22.482z"/>
		</g>
		
			<line fill="none" stroke="#000000" stroke-width="2" stroke-linecap="round" stroke-miterlimit="10" x1="20.035" y1="19.812" x2="30.466" y2="30.242"/>
	</g>
</g>
<g id="Layer_2" display="none">
	
		<line display="inline" fill="none" stroke="#000000" stroke-width="2" stroke-linecap="round" stroke-miterlimit="10" x1="12.59" y1="2.834" x2="34.59" y2="24.834"/>
	
		<line display="inline" fill="none" stroke="#000000" stroke-width="2" stroke-linecap="round" stroke-miterlimit="10" x1="34.59" y1="24.833" x2="12.59" y2="46.834"/>
</g>
<g id="Layer_3" display="none">
	
		<line display="inline" fill="none" stroke="#000000" stroke-width="2" stroke-linecap="round" stroke-miterlimit="10" x1="34.59" y1="2.834" x2="12.59" y2="24.834"/>
	
		<line display="inline" fill="none" stroke="#000000" stroke-width="2" stroke-linecap="round" stroke-miterlimit="10" x1="12.59" y1="24.833" x2="34.59" y2="46.834"/>
</g>
<g id="Layer_4">
	<g>
		<path d="M24.334,48.167c-0.552,0-1-0.447-1-1V2.5c0-0.552,0.448-1,1-1s1,0.448,1,1v44.667
			C25.334,47.72,24.886,48.167,24.334,48.167z"/>
	</g>
	<g>
		<path d="M46.668,25.833H2c-0.552,0-1-0.448-1-1s0.448-1,1-1h44.668c0.553,0,1,0.448,1,1S47.221,25.833,46.668,25.833z"/>
	</g>
</g>
</svg>
