<?xml version="1.0" encoding="utf-8"?>
<!-- Generator: Adobe Illustrator 16.0.4, SVG Export Plug-In . SVG Version: 6.00 Build 0)  -->
<!DOCTYPE svg PUBLIC "-//W3C//DTD SVG 1.1//EN" "http://www.w3.org/Graphics/SVG/1.1/DTD/svg11.dtd">
<svg version="1.1" id="Layer_1" xmlns="http://www.w3.org/2000/svg" xmlns:xlink="http://www.w3.org/1999/xlink" x="0px" y="0px"
	 width="50px" height="50px" viewBox="0 0 50 50" enable-background="new 0 0 50 50" xml:space="preserve">
<g>
	<path d="M12.975,4.149L12.975,4.149c0.52,0,1.154,0.37,1.884,1.1l9.567,9.568c0.772,0.771,1.141,1.439,1.097,1.984
		c-0.048,0.595-0.556,1.393-1.47,2.307l-4.721,4.721c-0.979,0.979-1.788,1.475-2.406,1.475c-0.521,0-1.155-0.37-1.885-1.101
		l-9.567-9.567c-1.331-1.331-1.728-2.188,0.374-4.292l4.721-4.721C11.547,4.646,12.356,4.149,12.975,4.149 M12.974,2.149
		c-1.246,0-2.485,0.726-3.82,2.061L4.433,8.931c-2.483,2.484-2.858,4.636-0.375,7.12l9.567,9.567
		c1.149,1.149,2.227,1.687,3.299,1.687c1.247,0,2.485-0.726,3.82-2.061l4.721-4.721c2.483-2.483,2.858-4.636,0.374-7.12
		l-9.567-9.567C15.125,2.687,14.047,2.149,12.974,2.149L12.974,2.149z"/>
	<path d="M33.308,24.482c0.521,0,1.154,0.37,1.885,1.1l9.566,9.566c0.771,0.772,1.141,1.44,1.097,1.985
		c-0.048,0.595-0.557,1.393-1.471,2.307l-4.72,4.721c-0.979,0.979-1.789,1.475-2.407,1.475c-0.521,0-1.155-0.37-1.886-1.101
		l-9.566-9.566c-0.772-0.771-1.141-1.439-1.097-1.985c0.048-0.595,0.557-1.393,1.472-2.307l4.72-4.72
		C31.879,24.979,32.689,24.482,33.308,24.482 M33.308,22.482c-1.247,0-2.486,0.726-3.821,2.061l-4.72,4.72
		c-2.484,2.483-2.859,4.636-0.375,7.12l9.567,9.566c1.149,1.149,2.228,1.687,3.3,1.687c1.247,0,2.486-0.726,3.821-2.061l4.72-4.721
		c2.484-2.483,2.858-4.636,0.374-7.12l-9.566-9.566C35.457,23.019,34.38,22.482,33.308,22.482L33.308,22.482z"/>
	
		<line fill="none" stroke="#000000" stroke-width="2" stroke-linecap="round" stroke-miterlimit="10" x1="20.035" y1="19.812" x2="30.466" y2="30.242"/>
</g>
</svg>
